<?xml version="1.0" encoding="UTF-8" standalone="no"?>
<!DOCTYPE svg PUBLIC "-//W3C//DTD SVG 1.1//EN"
 "http://www.w3.org/Graphics/SVG/1.1/DTD/svg11.dtd">
<!-- Generated by graphviz version 2.40.1 (20161225.0304)
 -->
<!-- Title: %0 Pages: 1 -->
<svg width="934pt" height="306pt"
 viewBox="0.00 0.00 933.98 306.45" xmlns="http://www.w3.org/2000/svg" xmlns:xlink="http://www.w3.org/1999/xlink">
<g id="graph0" class="graph" transform="scale(1 1) rotate(0) translate(4 302.4493)">
<title>%0</title>
<polygon fill="#ffffff" stroke="transparent" points="-4,4 -4,-302.4493 929.9774,-302.4493 929.9774,4 -4,4"/>
<!-- Groups -->
<g id="node1" class="node">
<title>Groups</title>
<polygon fill="#00868b" stroke="#000000" points="101,-248.1493 0,-248.1493 0,-201.1493 101,-201.1493 101,-248.1493"/>
<text text-anchor="start" x="57.5535" y="-228.6493" font-family="Helvetica,sans-Serif" font-style="italic" font-size="10.00" fill="#ffffff">Shared</text>
<text text-anchor="start" x="11.2125" y="-215.0493" font-family="Helvetica,sans-Serif" font-size="14.00" fill="#ffffff"> &#160;&#160;&#160;&#160;Parties &#160;&#160;&#160;</text>
</g>
<!-- MIPS -->
<g id="node2" class="node">
<title>MIPS</title>
<polygon fill="#f5f5dc" stroke="#000000" points="315.0238,-295.1493 214.0238,-295.1493 214.0238,-248.1493 315.0238,-248.1493 315.0238,-295.1493"/>
<text text-anchor="start" x="264.8046" y="-275.6493" font-family="Helvetica,sans-Serif" font-style="italic" font-size="10.00" fill="#000000">Designing</text>
<text text-anchor="start" x="219.791" y="-262.0493" font-family="Helvetica,sans-Serif" font-size="14.00" fill="#000000"> &#160;&#160;&#160;&#160;&#160;Projects &#160;&#160;&#160;</text>
</g>
<!-- Groups&#45;&gt;MIPS -->
<g id="edge1" class="edge">
<title>Groups&#45;&gt;MIPS</title>
<path fill="none" stroke="#000000" d="M101.2207,-235.7876C132.0273,-242.5528 171.5349,-251.2287 203.9739,-258.3524"/>
<polygon fill="#000000" stroke="#000000" points="203.2788,-261.7831 213.7968,-260.5095 204.7803,-254.946 203.2788,-261.7831"/>
<text text-anchor="middle" x="157.5119" y="-259.8493" font-family="Helvetica,sans-Serif" font-size="14.00" fill="#000000"> define</text>
</g>
<!-- Model -->
<g id="node4" class="node">
<title>Model</title>
<polygon fill="#f0f8ff" stroke="#000000" points="315.0238,-209.1493 214.0238,-209.1493 214.0238,-162.1493 315.0238,-162.1493 315.0238,-209.1493"/>
<text text-anchor="start" x="266.3116" y="-196.6493" font-family="Helvetica,sans-Serif" font-style="italic" font-size="10.00" fill="#000000">Software</text>
<text text-anchor="start" x="223.284" y="-183.0493" font-family="Helvetica,sans-Serif" font-size="14.00" fill="#000000"> &#160;&#160;&#160;&#160;&#160;&#160;Base &#160;&#160;&#160;&#160;&#160;</text>
<text text-anchor="start" x="240.021" y="-169.0493" font-family="Helvetica,sans-Serif" font-size="14.00" fill="#000000">Models </text>
</g>
<!-- Groups&#45;&gt;Model -->
<g id="edge4" class="edge">
<title>Groups&#45;&gt;Model</title>
<path fill="none" stroke="#000000" d="M101.0824,-207.3676C107.0771,-205.6723 113.1448,-204.1149 119,-202.8493 146.5499,-196.8942 177.5105,-192.872 203.7694,-190.2251"/>
<polygon fill="#000000" stroke="#000000" points="204.3411,-193.6863 213.9589,-189.2425 203.6691,-186.7187 204.3411,-193.6863"/>
<text text-anchor="middle" x="157.5119" y="-207.8493" font-family="Helvetica,sans-Serif" font-size="14.00" fill="#000000"> &#160;&#160;&#160;configure </text>
</g>
<!-- Experiments -->
<g id="node3" class="node">
<title>Experiments</title>
<polygon fill="#f5f5dc" stroke="#000000" points="506.4866,-295.1493 405.4866,-295.1493 405.4866,-248.1493 506.4866,-248.1493 506.4866,-295.1493"/>
<text text-anchor="start" x="452.7555" y="-282.6493" font-family="Helvetica,sans-Serif" font-style="italic" font-size="10.00" fill="#000000">Designing</text>
<text text-anchor="start" x="414.7657" y="-269.0493" font-family="Helvetica,sans-Serif" font-size="14.00" fill="#000000"> &#160;&#160;&#160;Numerical </text>
<text text-anchor="start" x="415.1486" y="-255.0493" font-family="Helvetica,sans-Serif" font-size="14.00" fill="#000000">Experiments </text>
</g>
<!-- MIPS&#45;&gt;Experiments -->
<g id="edge2" class="edge">
<title>MIPS&#45;&gt;Experiments</title>
<path fill="none" stroke="#000000" d="M315.0788,-271.6493C339.7263,-271.6493 369.5578,-271.6493 395.4149,-271.6493"/>
<polygon fill="#000000" stroke="#000000" points="395.4805,-275.1494 405.4805,-271.6493 395.4805,-268.1494 395.4805,-275.1494"/>
<text text-anchor="middle" x="360.2552" y="-275.8493" font-family="Helvetica,sans-Serif" font-size="14.00" fill="#000000"> design</text>
</g>
<!-- Experiments&#45;&gt;Groups -->
<g id="edge3" class="edge">
<title>Experiments&#45;&gt;Groups</title>
<path fill="none" stroke="#000000" d="M395.7173,-248.7149C371.0806,-240.4537 342.0632,-232.1208 315.0238,-227.8493 241.3056,-216.2037 154.5911,-218.0532 101.0825,-220.9576"/>
<polygon fill="#000000" stroke="#000000" points="394.6874,-252.0617 405.282,-251.9913 396.9559,-245.4394 394.6874,-252.0617"/>
<text text-anchor="middle" x="264.5238" y="-231.8493" font-family="Helvetica,sans-Serif" font-size="14.00" fill="#000000"> execute</text>
</g>
<!-- Simulation -->
<g id="node5" class="node">
<title>Simulation</title>
<polygon fill="#d2b48c" stroke="#000000" points="506.4866,-207.1493 405.4866,-207.1493 405.4866,-160.1493 506.4866,-160.1493 506.4866,-207.1493"/>
<text text-anchor="start" x="470.2171" y="-187.6493" font-family="Helvetica,sans-Serif" font-style="italic" font-size="10.00" fill="#000000">Activity</text>
<text text-anchor="start" x="410.0911" y="-174.0493" font-family="Helvetica,sans-Serif" font-size="14.00" fill="#000000"> &#160;&#160;Simulations &#160;</text>
</g>
<!-- Experiments&#45;&gt;Simulation -->
<g id="edge16" class="edge">
<title>Experiments&#45;&gt;Simulation</title>
<path fill="none" stroke="#000000" d="M455.9866,-237.7546C455.9866,-227.561 455.9866,-216.6025 455.9866,-207.2317"/>
<polygon fill="#000000" stroke="#000000" points="452.4867,-238.0018 455.9866,-248.0018 459.4867,-238.0018 452.4867,-238.0018"/>
<text text-anchor="middle" x="436.1866" y="-231.8493" font-family="Helvetica,sans-Serif" font-size="14.00" fill="#000000">conform &#160;&#160;&#160;</text>
<text text-anchor="middle" x="436.1866" y="-215.0493" font-family="Helvetica,sans-Serif" font-size="14.00" fill="#000000">to</text>
</g>
<!-- Requirements -->
<g id="node12" class="node">
<title>Requirements</title>
<polygon fill="#f5f5dc" stroke="#000000" points="925.9774,-118.1493 824.9774,-118.1493 824.9774,-71.1493 925.9774,-71.1493 925.9774,-118.1493"/>
<text text-anchor="start" x="876.531" y="-105.6493" font-family="Helvetica,sans-Serif" font-style="italic" font-size="10.00" fill="#000000">Designing</text>
<text text-anchor="start" x="834.2565" y="-92.0493" font-family="Helvetica,sans-Serif" font-size="14.00" fill="#000000"> &#160;&#160;&#160;Numerical </text>
<text text-anchor="start" x="829.9718" y="-78.0493" font-family="Helvetica,sans-Serif" font-size="14.00" fill="#000000">Requirements </text>
</g>
<!-- Experiments&#45;&gt;Requirements -->
<g id="edge21" class="edge">
<title>Experiments&#45;&gt;Requirements:n</title>
<path fill="none" stroke="#000000" d="M518.8424,-280.9879C574.6571,-286.5563 657.2956,-287.995 722.84,-260.6493 732.2346,-256.7297 843.024,-158.9552 869.7181,-127.4695"/>
<polygon fill="none" stroke="#000000" points="518.5876,-280.9603 512.1907,-284.2889 506.6578,-279.6642 513.0547,-276.3357 518.5876,-280.9603"/>
<polygon fill="#000000" stroke="#000000" points="872.9406,-128.9359 875.4774,-118.6493 867.0794,-125.1088 872.9406,-128.9359"/>
<text text-anchor="middle" x="672.34" y="-285.8493" font-family="Helvetica,sans-Serif" font-size="14.00" fill="#000000"> define</text>
</g>
<!-- Model&#45;&gt;Simulation -->
<!-- cModel -->
<g id="node9" class="node">
<title>cModel</title>
<polygon fill="#000080" stroke="#000000" points="315.0238,-121.1493 214.0238,-121.1493 214.0238,-74.1493 315.0238,-74.1493 315.0238,-121.1493"/>
<text text-anchor="start" x="272.9153" y="-108.6493" font-family="Helvetica,sans-Serif" font-style="italic" font-size="10.00" fill="#ffffff">Science</text>
<text text-anchor="start" x="220.5673" y="-95.0493" font-family="Helvetica,sans-Serif" font-size="14.00" fill="#ffffff"> &#160;&#160;&#160;Configured </text>
<text text-anchor="start" x="243.521" y="-81.0493" font-family="Helvetica,sans-Serif" font-size="14.00" fill="#ffffff">Model </text>
</g>
<!-- Model&#45;&gt;cModel -->
<g id="edge5" class="edge">
<title>Model&#45;&gt;cModel</title>
<path fill="none" stroke="#000000" d="M264.5238,-162.0018C264.5238,-152.6236 264.5238,-141.6632 264.5238,-131.4732"/>
<polygon fill="#000000" stroke="#000000" points="268.0239,-131.2316 264.5238,-121.2317 261.0239,-131.2317 268.0239,-131.2316"/>
<text text-anchor="middle" x="244.7238" y="-145.8493" font-family="Helvetica,sans-Serif" font-size="14.00" fill="#000000">leading &#160;&#160;</text>
<text text-anchor="middle" x="244.7238" y="-129.0493" font-family="Helvetica,sans-Serif" font-size="14.00" fill="#000000">to &#160;</text>
</g>
<!-- platform -->
<g id="node6" class="node">
<title>platform</title>
<polygon fill="#f0f8ff" stroke="#000000" points="722.84,-257.1493 621.84,-257.1493 621.84,-210.1493 722.84,-210.1493 722.84,-257.1493"/>
<text text-anchor="start" x="674.7905" y="-237.6493" font-family="Helvetica,sans-Serif" font-style="italic" font-size="10.00" fill="#000000">Platform</text>
<text text-anchor="start" x="632.6675" y="-224.0493" font-family="Helvetica,sans-Serif" font-size="14.00" fill="#000000"> &#160;&#160;&#160;&#160;Platform &#160;</text>
</g>
<!-- Simulation&#45;&gt;platform -->
<g id="edge7" class="edge">
<title>Simulation&#45;&gt;platform</title>
<path fill="none" stroke="#000000" d="M506.8275,-196.4087C512.7758,-197.8594 518.7619,-199.3002 524.4866,-200.6493 553.0879,-207.3892 584.8863,-214.5317 611.6432,-220.4416"/>
<polygon fill="#000000" stroke="#000000" points="611.1152,-223.9091 621.6341,-222.6428 612.6214,-217.0731 611.1152,-223.9091"/>
<text text-anchor="middle" x="564.1633" y="-239.6493" font-family="Helvetica,sans-Serif" font-size="14.00" fill="#000000"> are</text>
<text text-anchor="middle" x="564.1633" y="-222.8493" font-family="Helvetica,sans-Serif" font-size="14.00" fill="#000000"> run on a</text>
</g>
<!-- oData -->
<g id="node7" class="node">
<title>oData</title>
<polygon fill="#00868b" stroke="#000000" points="722.84,-203.1493 621.84,-203.1493 621.84,-156.1493 722.84,-156.1493 722.84,-203.1493"/>
<text text-anchor="start" x="693.6321" y="-190.6493" font-family="Helvetica,sans-Serif" font-style="italic" font-size="10.00" fill="#ffffff">Data</text>
<text text-anchor="start" x="629.9319" y="-177.0493" font-family="Helvetica,sans-Serif" font-size="14.00" fill="#ffffff"> &#160;&#160;&#160;&#160;&#160;Output &#160;&#160;&#160;&#160;</text>
<text text-anchor="start" x="655.6135" y="-163.0493" font-family="Helvetica,sans-Serif" font-size="14.00" fill="#ffffff">Data </text>
</g>
<!-- Simulation&#45;&gt;oData -->
<g id="edge8" class="edge">
<title>Simulation&#45;&gt;oData</title>
<path fill="none" stroke="#000000" d="M506.7119,-182.7114C538.0651,-182.1318 578.4889,-181.3844 611.5518,-180.7731"/>
<polygon fill="#000000" stroke="#000000" points="611.6246,-184.2725 621.5582,-180.5881 611.4951,-177.2737 611.6246,-184.2725"/>
<text text-anchor="middle" x="564.1633" y="-186.8493" font-family="Helvetica,sans-Serif" font-size="14.00" fill="#000000">produce &#160;&#160;&#160;&#160;&#160;&#160;</text>
</g>
<!-- oData&#45;&gt;Requirements -->
<g id="edge19" class="edge">
<title>oData&#45;&gt;Requirements</title>
<path fill="none" stroke="#000000" d="M717.3135,-156.0169C725.0872,-152.1963 733.1439,-148.3996 740.84,-145.0493 769.5671,-132.5437 777.6339,-131.6307 806.9774,-120.6493 809.6579,-119.6461 812.3963,-118.6185 815.1619,-117.5784"/>
<polygon fill="#000000" stroke="#000000" points="816.5013,-120.814 824.624,-114.0116 814.0322,-114.2639 816.5013,-120.814"/>
<text text-anchor="middle" x="773.9087" y="-166.6493" font-family="Helvetica,sans-Serif" font-size="14.00" fill="#000000"> requested</text>
<text text-anchor="middle" x="773.9087" y="-149.8493" font-family="Helvetica,sans-Serif" font-size="14.00" fill="#000000">in</text>
</g>
<!-- dot -->
<!-- oData&#45;&gt;dot -->
<!-- iData -->
<g id="node8" class="node">
<title>iData</title>
<polygon fill="#f0f8ff" stroke="#000000" points="506.4866,-121.1493 405.4866,-121.1493 405.4866,-74.1493 506.4866,-74.1493 506.4866,-121.1493"/>
<text text-anchor="start" x="471.8334" y="-108.6493" font-family="Helvetica,sans-Serif" font-style="italic" font-size="10.00" fill="#000000">Data</text>
<text text-anchor="start" x="419.0238" y="-95.0493" font-family="Helvetica,sans-Serif" font-size="14.00" fill="#000000"> &#160;&#160;&#160;&#160;&#160;Input &#160;&#160;&#160;&#160;</text>
<text text-anchor="start" x="439.2601" y="-81.0493" font-family="Helvetica,sans-Serif" font-size="14.00" fill="#000000">Data </text>
</g>
<!-- conformances -->
<g id="node11" class="node">
<title>conformances</title>
<polygon fill="#d2b48c" stroke="#000000" points="722.84,-101.1493 621.84,-101.1493 621.84,-54.1493 722.84,-54.1493 722.84,-101.1493"/>
<text text-anchor="start" x="688.1273" y="-81.6493" font-family="Helvetica,sans-Serif" font-style="italic" font-size="10.00" fill="#000000">Activity</text>
<text text-anchor="start" x="624.8877" y="-68.0493" font-family="Helvetica,sans-Serif" font-size="14.00" fill="#000000"> Conformances</text>
</g>
<!-- iData&#45;&gt;conformances -->
<g id="edge13" class="edge">
<title>iData&#45;&gt;conformances</title>
<path fill="none" stroke="#000000" d="M506.7119,-92.9602C538.0651,-90.0618 578.4889,-86.325 611.5518,-83.2686"/>
<polygon fill="#000000" stroke="#000000" points="611.9228,-86.7493 621.5582,-82.3436 611.2784,-79.779 611.9228,-86.7493"/>
</g>
<!-- iData&#45;&gt;Requirements -->
<g id="edge10" class="edge">
<title>iData&#45;&gt;Requirements</title>
<path fill="none" stroke="#000000" d="M506.6812,-102.9656C575.0322,-109.2499 700.4616,-117.6672 806.9774,-107.6493 809.5082,-107.4112 812.0847,-107.1248 814.6825,-106.7995"/>
<polygon fill="#000000" stroke="#000000" points="815.3453,-110.2406 824.7553,-105.3721 814.3632,-103.3098 815.3453,-110.2406"/>
<text text-anchor="middle" x="672.34" y="-133.6493" font-family="Helvetica,sans-Serif" font-size="14.00" fill="#000000"> defined</text>
<text text-anchor="middle" x="672.34" y="-116.8493" font-family="Helvetica,sans-Serif" font-size="14.00" fill="#000000"> by</text>
</g>
<!-- cModel&#45;&gt;Simulation -->
<g id="edge6" class="edge">
<title>cModel&#45;&gt;Simulation</title>
<path fill="none" stroke="#000000" d="M315.0788,-120.3572C339.9444,-131.5262 370.0862,-145.0651 396.1005,-156.75"/>
<polygon fill="#000000" stroke="#000000" points="394.9244,-160.0586 405.4805,-160.9633 397.7926,-153.6731 394.9244,-160.0586"/>
<text text-anchor="middle" x="360.2552" y="-155.8493" font-family="Helvetica,sans-Serif" font-size="14.00" fill="#000000"> used for</text>
</g>
<!-- cModel&#45;&gt;iData -->
<g id="edge9" class="edge">
<title>cModel&#45;&gt;iData</title>
<path fill="none" stroke="#000000" d="M315.0788,-97.6493C339.7263,-97.6493 369.5578,-97.6493 395.4149,-97.6493"/>
<polygon fill="#000000" stroke="#000000" points="395.4805,-101.1494 405.4805,-97.6493 395.4805,-94.1494 395.4805,-101.1494"/>
<text text-anchor="middle" x="360.2552" y="-101.8493" font-family="Helvetica,sans-Serif" font-size="14.00" fill="#000000"> uses</text>
</g>
<!-- mods -->
<g id="node10" class="node">
<title>mods</title>
<polygon fill="#d2b48c" stroke="#000000" points="506.4866,-67.1493 405.4866,-67.1493 405.4866,-20.1493 506.4866,-20.1493 506.4866,-67.1493"/>
<text text-anchor="start" x="470.9948" y="-47.6493" font-family="Helvetica,sans-Serif" font-style="italic" font-size="10.00" fill="#000000">Activity</text>
<text text-anchor="start" x="409.3134" y="-34.0493" font-family="Helvetica,sans-Serif" font-size="14.00" fill="#000000"> &#160;Modifications </text>
</g>
<!-- cModel&#45;&gt;mods -->
<g id="edge15" class="edge">
<title>cModel&#45;&gt;mods</title>
<path fill="none" stroke="#000000" d="M306.0352,-74.108C314.7433,-69.9088 324.0212,-65.9539 333.0238,-63.0493 352.8182,-56.6626 375.1079,-52.3362 395.2193,-49.4235"/>
<polygon fill="#000000" stroke="#000000" points="395.7668,-52.8813 405.2036,-48.0651 394.8231,-45.9452 395.7668,-52.8813"/>
<text text-anchor="middle" x="360.2552" y="-84.6493" font-family="Helvetica,sans-Serif" font-size="14.00" fill="#000000"> may</text>
<text text-anchor="middle" x="360.2552" y="-67.8493" font-family="Helvetica,sans-Serif" font-size="14.00" fill="#000000"> use</text>
</g>
<!-- mods&#45;&gt;conformances -->
<g id="edge12" class="edge">
<title>mods&#45;&gt;conformances</title>
<path fill="none" stroke="#000000" d="M506.6261,-51.5858C535.1763,-56.0628 571.4989,-61.7624 603.84,-66.8493 606.4806,-67.2646 609.1785,-67.6891 611.9038,-68.1182"/>
<polygon fill="#000000" stroke="#000000" points="611.416,-71.5844 621.8387,-69.6827 612.505,-64.6696 611.416,-71.5844"/>
<text text-anchor="middle" x="564.1633" y="-71.8493" font-family="Helvetica,sans-Serif" font-size="14.00" fill="#000000">described by</text>
</g>
<!-- mods&#45;&gt;Requirements -->
<!-- mods&#45;&gt;Requirements -->
<g id="edge18" class="edge">
<title>mods&#45;&gt;Requirements</title>
<path fill="none" stroke="#000000" d="M506.8136,-25.5545C560.9997,-8.877 648.9922,10.6758 722.84,-8.0493 765.0409,-18.7498 807.687,-44.4864 837.1329,-65.1393"/>
<polygon fill="#000000" stroke="#000000" points="835.2833,-68.1194 845.4539,-71.0875 839.3541,-62.4248 835.2833,-68.1194"/>
<text text-anchor="middle" x="672.34" y="-29.6493" font-family="Helvetica,sans-Serif" font-size="14.00" fill="#000000">Needed</text>
<text text-anchor="middle" x="672.34" y="-12.8493" font-family="Helvetica,sans-Serif" font-size="14.00" fill="#000000">to meet</text>
</g>
<!-- conformances&#45;&gt;Requirements -->
<g id="edge14" class="edge">
<title>conformances&#45;&gt;Requirements</title>
<path fill="none" stroke="#000000" d="M723.0369,-74.3204C748.3483,-73.4451 779.381,-73.5607 806.9774,-77.0493 809.6269,-77.3842 812.3207,-77.7893 815.032,-78.2501"/>
<polygon fill="#000000" stroke="#000000" points="814.3991,-81.6924 824.8791,-80.1374 815.7167,-74.8176 814.3991,-81.6924"/>
<text text-anchor="middle" x="773.9087" y="-98.6493" font-family="Helvetica,sans-Serif" font-size="14.00" fill="#000000">relate</text>
<text text-anchor="middle" x="773.9087" y="-81.8493" font-family="Helvetica,sans-Serif" font-size="14.00" fill="#000000">to</text>
</g>
</g>
</svg>
